<svg xmlns="http://www.w3.org/2000/svg" viewBox="0 0 640 512" fill="currentColor">
  <!--! Font Awesome Free 6.x - License: https://fontawesome.com/license/free (Icons: CC BY 4.0, Code: MIT License) -->
  <path d="M171.3 96H224v96H111.3l30.4-75.9C146.5 104 158.2 96 171.3 96zM272 192V96h81.2c9.7 0 18.9 4.8 24.2 13l39.2 58.7c2.4 3.6 7.2 6.3 12.4 6.3H512c17.7 0 32 14.3 32 32v64c17.7 0 32 14.3 32 32s-14.3 32-32 32H480c0 44.2-35.8 80-80 80s-80-35.8-80-80H256c0 44.2-35.8 80-80 80s-80-35.8-80-80H64c-17.7 0-32-14.3-32-32s14.3-32 32-32V224c0-17.7 14.3-32 32-32h6.3l37.5-93.7C152.6 68.9 182.1 48 214.6 48h154.9c22.1 0 42.5 11.1 54.8 29.2L googletag 480 192H272zM400 384a40 40 0 1 0 0-80 40 40 0 1 0 0 80zm-224 0a40 40 0 1 0 0-80 40 40 0 1 0 0 80z"/>
</svg>
